<svg xmlns="http://www.w3.org/2000/svg" viewBox="-96 -96 192 192" class="mandala-art" aria-hidden="true"><defs><path id="c1" d="M0 -6C3.6 -10.5 3.6 -15 0 -15C-3.6 -15 -3.6 -10.5 0 -6Z"/><path id="p1" d="M0 -18C9 -27.9 4.95 -37 0 -40C-4.95 -37 -9 -27.9 0 -18Z"/><path id="p1v" d="M0 -21L0 -35"/><path id="p2" d="M0 -18C7.5 -30.15 4.12 -41 0 -45C-4.12 -41 -7.5 -30.15 0 -18Z"/><path id="p3" d="M0 -56C11 -66.8 6.05 -75 0 -80C-6.05 -75 -11 -66.8 0 -56Z"/><path id="p3i" d="M0 -59Q5.5 -65.75 0 -74Q-5.5 -65.75 0 -59Z"/></defs><circle r="96" fill="#FBF3E6"/><circle r="4.2" fill="#D9A05B"/><g fill="#D9A05B" stroke="#8A4512" stroke-width="0.72" stroke-linejoin="round"><use href="#c1" transform="rotate(0)"/><use href="#c1" transform="rotate(60)"/><use href="#c1" transform="rotate(120)"/><use href="#c1" transform="rotate(180)"/><use href="#c1" transform="rotate(240)"/><use href="#c1" transform="rotate(300)"/></g><circle r="17" fill="none" stroke="#8A4512" stroke-width="0.9"/><g fill="#F6E6CF" stroke="#8A4512" stroke-width="0.9" stroke-linejoin="round"><use href="#p1" transform="rotate(15)"/><use href="#p1" transform="rotate(45)"/><use href="#p1" transform="rotate(75)"/><use href="#p1" transform="rotate(105)"/><use href="#p1" transform="rotate(135)"/><use href="#p1" transform="rotate(165)"/><use href="#p1" transform="rotate(195)"/><use href="#p1" transform="rotate(225)"/><use href="#p1" transform="rotate(255)"/><use href="#p1" transform="rotate(285)"/><use href="#p1" transform="rotate(315)"/><use href="#p1" transform="rotate(345)"/></g><g fill="#D9A05B" stroke="#8A4512" stroke-width="0.9" stroke-linejoin="round"><use href="#p2" transform="rotate(0)"/><use href="#p2" transform="rotate(30)"/><use href="#p2" transform="rotate(60)"/><use href="#p2" transform="rotate(90)"/><use href="#p2" transform="rotate(120)"/><use href="#p2" transform="rotate(150)"/><use href="#p2" transform="rotate(180)"/><use href="#p2" transform="rotate(210)"/><use href="#p2" transform="rotate(240)"/><use href="#p2" transform="rotate(270)"/><use href="#p2" transform="rotate(300)"/><use href="#p2" transform="rotate(330)"/></g><g fill="none" stroke="#8A4512" stroke-width="0.54" stroke-linejoin="round" opacity=".7"><use href="#p1v" transform="rotate(0)"/><use href="#p1v" transform="rotate(30)"/><use href="#p1v" transform="rotate(60)"/><use href="#p1v" transform="rotate(90)"/><use href="#p1v" transform="rotate(120)"/><use href="#p1v" transform="rotate(150)"/><use href="#p1v" transform="rotate(180)"/><use href="#p1v" transform="rotate(210)"/><use href="#p1v" transform="rotate(240)"/><use href="#p1v" transform="rotate(270)"/><use href="#p1v" transform="rotate(300)"/><use href="#p1v" transform="rotate(330)"/></g><circle r="49" fill="none" stroke="#8A4512" stroke-width="0.72"/><g fill="#D9A05B"><circle cx="0" cy="-52.6" r="1.15"/><circle cx="9.13" cy="-51.8" r="1.15"/><circle cx="17.99" cy="-49.43" r="1.15"/><circle cx="26.3" cy="-45.55" r="1.15"/><circle cx="33.81" cy="-40.29" r="1.15"/><circle cx="40.29" cy="-33.81" r="1.15"/><circle cx="45.55" cy="-26.3" r="1.15"/><circle cx="49.43" cy="-17.99" r="1.15"/><circle cx="51.8" cy="-9.13" r="1.15"/><circle cx="52.6" cy="0" r="1.15"/><circle cx="51.8" cy="9.13" r="1.15"/><circle cx="49.43" cy="17.99" r="1.15"/><circle cx="45.55" cy="26.3" r="1.15"/><circle cx="40.29" cy="33.81" r="1.15"/><circle cx="33.81" cy="40.29" r="1.15"/><circle cx="26.3" cy="45.55" r="1.15"/><circle cx="17.99" cy="49.43" r="1.15"/><circle cx="9.13" cy="51.8" r="1.15"/><circle cx="0" cy="52.6" r="1.15"/><circle cx="-9.13" cy="51.8" r="1.15"/><circle cx="-17.99" cy="49.43" r="1.15"/><circle cx="-26.3" cy="45.55" r="1.15"/><circle cx="-33.81" cy="40.29" r="1.15"/><circle cx="-40.29" cy="33.81" r="1.15"/><circle cx="-45.55" cy="26.3" r="1.15"/><circle cx="-49.43" cy="17.99" r="1.15"/><circle cx="-51.8" cy="9.13" r="1.15"/><circle cx="-52.6" cy="0" r="1.15"/><circle cx="-51.8" cy="-9.13" r="1.15"/><circle cx="-49.43" cy="-17.99" r="1.15"/><circle cx="-45.55" cy="-26.3" r="1.15"/><circle cx="-40.29" cy="-33.81" r="1.15"/><circle cx="-33.81" cy="-40.29" r="1.15"/><circle cx="-26.3" cy="-45.55" r="1.15"/><circle cx="-17.99" cy="-49.43" r="1.15"/><circle cx="-9.13" cy="-51.8" r="1.15"/></g><circle r="56" fill="none" stroke="#8A4512" stroke-width="0.72"/><g fill="#F6E6CF" stroke="#8A4512" stroke-width="0.9" stroke-linejoin="round"><use href="#p3" transform="rotate(0)"/><use href="#p3" transform="rotate(30)"/><use href="#p3" transform="rotate(60)"/><use href="#p3" transform="rotate(90)"/><use href="#p3" transform="rotate(120)"/><use href="#p3" transform="rotate(150)"/><use href="#p3" transform="rotate(180)"/><use href="#p3" transform="rotate(210)"/><use href="#p3" transform="rotate(240)"/><use href="#p3" transform="rotate(270)"/><use href="#p3" transform="rotate(300)"/><use href="#p3" transform="rotate(330)"/></g><g fill="#D9A05B" stroke="#8A4512" stroke-width="0.63" stroke-linejoin="round"><use href="#p3i" transform="rotate(0)"/><use href="#p3i" transform="rotate(30)"/><use href="#p3i" transform="rotate(60)"/><use href="#p3i" transform="rotate(90)"/><use href="#p3i" transform="rotate(120)"/><use href="#p3i" transform="rotate(150)"/><use href="#p3i" transform="rotate(180)"/><use href="#p3i" transform="rotate(210)"/><use href="#p3i" transform="rotate(240)"/><use href="#p3i" transform="rotate(270)"/><use href="#p3i" transform="rotate(300)"/><use href="#p3i" transform="rotate(330)"/></g><path d="M0 -82Q11.42 -86.75 21.22 -79.21Q33.48 -80.84 41 -71.01Q53.27 -69.42 57.98 -57.98Q69.42 -53.27 71.01 -41Q80.84 -33.48 79.21 -21.22Q86.75 -11.42 82 0Q86.75 11.42 79.21 21.22Q80.84 33.48 71.01 41Q69.42 53.27 57.98 57.98Q53.27 69.42 41 71.01Q33.48 80.84 21.22 79.21Q11.42 86.75 0 82Q-11.42 86.75 -21.22 79.21Q-33.48 80.84 -41 71.01Q-53.27 69.42 -57.98 57.98Q-69.42 53.27 -71.01 41Q-80.84 33.48 -79.21 21.22Q-86.75 11.42 -82 0Q-86.75 -11.42 -79.21 -21.22Q-80.84 -33.48 -71.01 -41Q-69.42 -53.27 -57.98 -57.98Q-53.27 -69.42 -41 -71.01Q-33.48 -80.84 -21.22 -79.21Q-11.42 -86.75 -0 -82Z" fill="none" stroke="#8A4512" stroke-width="0.81"/><g fill="#D9A05B"><circle cx="11.38" cy="-86.45" r="1.4"/><circle cx="33.37" cy="-80.56" r="1.4"/><circle cx="53.08" cy="-69.18" r="1.4"/><circle cx="69.18" cy="-53.08" r="1.4"/><circle cx="80.56" cy="-33.37" r="1.4"/><circle cx="86.45" cy="-11.38" r="1.4"/><circle cx="86.45" cy="11.38" r="1.4"/><circle cx="80.56" cy="33.37" r="1.4"/><circle cx="69.18" cy="53.08" r="1.4"/><circle cx="53.08" cy="69.18" r="1.4"/><circle cx="33.37" cy="80.56" r="1.4"/><circle cx="11.38" cy="86.45" r="1.4"/><circle cx="-11.38" cy="86.45" r="1.4"/><circle cx="-33.37" cy="80.56" r="1.4"/><circle cx="-53.08" cy="69.18" r="1.4"/><circle cx="-69.18" cy="53.08" r="1.4"/><circle cx="-80.56" cy="33.37" r="1.4"/><circle cx="-86.45" cy="11.38" r="1.4"/><circle cx="-86.45" cy="-11.38" r="1.4"/><circle cx="-80.56" cy="-33.37" r="1.4"/><circle cx="-69.18" cy="-53.08" r="1.4"/><circle cx="-53.08" cy="-69.18" r="1.4"/><circle cx="-33.37" cy="-80.56" r="1.4"/><circle cx="-11.38" cy="-86.45" r="1.4"/></g><circle r="91" fill="none" stroke="#8A4512" stroke-width="0.63" opacity=".6"/></svg>