<svg xmlns="http://www.w3.org/2000/svg" class="art" viewBox="0 0 200 200" preserveAspectRatio="xMidYMid slice" role="img" aria-label="" style="--art-bg:#F0DEDA;color:#6E2B2B">
    <rect width="200" height="200" fill="#F0DEDA"/>
    <g fill="none" stroke="currentColor" stroke-width="2.2" stroke-linecap="round" stroke-linejoin="round" transform="translate(30 30) scale(.7)"><circle cx="100.0" cy="36.0" r="5.2"/><circle cx="110.1" cy="37.0" r="5.2"/><circle cx="119.9" cy="40.0" r="5.2"/><circle cx="128.9" cy="44.8" r="5.2"/><circle cx="136.8" cy="51.2" r="5.2"/><circle cx="143.2" cy="59.1" r="5.2"/><circle cx="148.0" cy="68.1" r="5.2"/><circle cx="151.0" cy="77.9" r="5.2"/><circle cx="152.0" cy="88.0" r="5.2"/><circle cx="151.0" cy="98.1" r="5.2"/><circle cx="148.0" cy="107.9" r="5.2"/><circle cx="143.2" cy="116.9" r="5.2"/><circle cx="136.8" cy="124.8" r="5.2"/><circle cx="128.9" cy="131.2" r="5.2"/><circle cx="119.9" cy="136.0" r="5.2"/><circle cx="80.1" cy="136.0" r="5.2"/><circle cx="71.1" cy="131.2" r="5.2"/><circle cx="63.2" cy="124.8" r="5.2"/><circle cx="56.8" cy="116.9" r="5.2"/><circle cx="52.0" cy="107.9" r="5.2"/><circle cx="49.0" cy="98.1" r="5.2"/><circle cx="48.0" cy="88.0" r="5.2"/><circle cx="49.0" cy="77.9" r="5.2"/><circle cx="52.0" cy="68.1" r="5.2"/><circle cx="56.8" cy="59.1" r="5.2"/><circle cx="63.2" cy="51.2" r="5.2"/><circle cx="71.1" cy="44.8" r="5.2"/><circle cx="80.1" cy="40.0" r="5.2"/><circle cx="89.9" cy="37.0" r="5.2"/>
    <circle cx="100" cy="146" r="7"/>
    <path d="M100 153v8M92 161h16l-3 28h-10z"/>
    <path d="M97 168v18M103 168v18" opacity=".45"/></g>
  </svg>